<?xml version="1.0" encoding="UTF-8" standalone="no"?>
<!-- Created with Inkscape (http://www.inkscape.org/) -->

<svg
   xmlns:dc="http://purl.org/dc/elements/1.1/"
   xmlns:cc="http://creativecommons.org/ns#"
   xmlns:rdf="http://www.w3.org/1999/02/22-rdf-syntax-ns#"
   xmlns:svg="http://www.w3.org/2000/svg"
   xmlns="http://www.w3.org/2000/svg"
   xmlns:sodipodi="http://sodipodi.sourceforge.net/DTD/sodipodi-0.dtd"
   xmlns:inkscape="http://www.inkscape.org/namespaces/inkscape"
   width="51.009289mm"
   height="4.2815647mm"
   viewBox="0 0 180.74157 15.170898"
   id="svg4253"
   version="1.1"
   inkscape:version="0.91 r13725"
   sodipodi:docname="eml_kasse.svg">
  <defs
     id="defs4255" />
  <sodipodi:namedview
     id="base"
     pagecolor="#ffffff"
     bordercolor="#666666"
     borderopacity="1.0"
     inkscape:pageopacity="0.0"
     inkscape:pageshadow="2"
     inkscape:zoom="3.959798"
     inkscape:cx="78.676558"
     inkscape:cy="-29.814597"
     inkscape:document-units="px"
     inkscape:current-layer="text4801"
     showgrid="false"
     fit-margin-top="0"
     fit-margin-left="0"
     fit-margin-right="0"
     fit-margin-bottom="0"
     inkscape:window-width="1920"
     inkscape:window-height="1029"
     inkscape:window-x="0"
     inkscape:window-y="0"
     inkscape:window-maximized="1" />
  <metadata
     id="metadata4258">
    <rdf:RDF>
      <cc:Work
         rdf:about="">
        <dc:format>image/svg+xml</dc:format>
        <dc:type
           rdf:resource="http://purl.org/dc/dcmitype/StillImage" />
        <dc:title></dc:title>
      </cc:Work>
    </rdf:RDF>
  </metadata>
  <g
     inkscape:label="Layer 1"
     inkscape:groupmode="layer"
     id="layer1"
     transform="translate(-162.15575,-154.39249)">
    <g
       style="font-style:normal;font-variant:normal;font-weight:normal;font-stretch:normal;font-size:17.5px;line-height:89.99999762%;font-family:'DejaVu Serif';-inkscape-font-specification:'DejaVu Serif, Normal';text-align:start;writing-mode:lr-tb;text-anchor:start;fill:#000000;fill-opacity:1;fill-rule:evenodd;stroke:none;stroke-width:0.5;stroke-miterlimit:4;stroke-dasharray:none;stroke-opacity:1"
       id="text4801">
      <g
         style="font-style:normal;font-variant:normal;font-weight:normal;font-stretch:normal;font-size:16.25px;line-height:120.00000477%;font-family:'DejaVu Serif';-inkscape-font-specification:'DejaVu Serif, Normal';text-align:start;writing-mode:lr-tb;text-anchor:start;fill:#000000;fill-opacity:1;fill-rule:evenodd;stroke:none;stroke-width:0.5;stroke-miterlimit:4;stroke-dasharray:none;stroke-opacity:1"
         id="text4867">
        <path
           d="m 166.33727,166.73868 -4.09424,0 0,-0.84107 1.31714,0 0,-10.66406 -1.40442,0 0,-0.84106 2.86438,0 0,8.03772 3.55468,-3.27698 -1.21399,0 0,-0.849 3.81653,0 0,0.849 -1.44409,0 -2.50732,2.31689 3.20556,4.42749 1.21399,0 0,0.84107 -4.15771,0 0,-0.84107 1.20605,0 -2.52319,-3.4674 -1.15051,1.07116 0,2.39624 1.31714,0 0,0.84107 z"
           style=""
           id="path4915" />
        <path
           d="m 177.99315,164.08853 0,-1.78528 -1.88049,0 q -1.08704,0 -1.61866,0.46814 -0.53161,0.46814 -0.53161,1.43616 0,0.88074 0.53955,1.39648 0.53955,0.51575 1.45996,0.51575 0.91247,0 1.46789,-0.56335 0.56336,-0.56336 0.56336,-1.4679 z m 1.45996,-2.61841 0,4.42749 1.30127,0 0,0.84107 -2.76123,0 0,-0.91248 q -0.48401,0.58716 -1.11878,0.86487 -0.63476,0.27771 -1.48376,0.27771 -1.40442,0 -2.22961,-0.74585 -0.8252,-0.74585 -0.8252,-2.01538 0,-1.3092 0.94421,-2.03125 0.94422,-0.72205 2.66602,-0.72205 l 2.04712,0 0,-0.57922 q 0,-0.96008 -0.58716,-1.48376 -0.57922,-0.53162 -1.63452,-0.53162 -0.8728,0 -1.38855,0.39673 -0.51575,0.39673 -0.6427,1.17431 l -0.75379,0 0,-1.70593 q 0.76172,-0.32532 1.47584,-0.48401 0.72204,-0.16662 1.40441,-0.16662 1.75354,0 2.66602,0.8728 0.92041,0.86487 0.92041,2.52319 z"
           style=""
           id="path4917" />
        <path
           d="m 182.11913,166.27054 0,-1.96778 0.84106,0 q 0.0317,0.94422 0.58716,1.41236 0.56335,0.46814 1.65832,0.46814 0.98389,0 1.49964,-0.36499 0.51574,-0.37293 0.51574,-1.0791 0,-0.55542 -0.38086,-0.89661 -0.37292,-0.34119 -1.58691,-0.72998 l -1.0553,-0.35706 q -1.08703,-0.34912 -1.57898,-0.8728 -0.48401,-0.52368 -0.48401,-1.33301 0,-1.15844 0.849,-1.81701 0.849,-0.65857 2.34864,-0.65857 0.6665,0 1.40442,0.17456 0.73791,0.17456 1.52343,0.50781 l 0,1.84082 -0.84106,0 q -0.0317,-0.81726 -0.57129,-1.27747 -0.53955,-0.4602 -1.4679,-0.4602 -0.92041,0 -1.39648,0.32532 -0.46814,0.32531 -0.46814,0.97595 0,0.53162 0.35706,0.85693 0.35705,0.31739 1.42822,0.65064 l 1.15845,0.35705 q 1.19812,0.37293 1.7218,0.93628 0.53161,0.55542 0.53161,1.43616 0,1.19812 -0.92041,1.88843 -0.91247,0.68237 -2.52319,0.68237 -0.81726,0 -1.59485,-0.17456 -0.77759,-0.17456 -1.55517,-0.52368 z"
           style=""
           id="path4919" />
        <path
           d="m 190.46629,166.27054 0,-1.96778 0.84107,0 q 0.0317,0.94422 0.58716,1.41236 0.56335,0.46814 1.65832,0.46814 0.98389,0 1.49963,-0.36499 0.51575,-0.37293 0.51575,-1.0791 0,-0.55542 -0.38086,-0.89661 -0.37292,-0.34119 -1.58691,-0.72998 l -1.0553,-0.35706 q -1.08704,-0.34912 -1.57898,-0.8728 -0.48401,-0.52368 -0.48401,-1.33301 0,-1.15844 0.849,-1.81701 0.849,-0.65857 2.34863,-0.65857 0.66651,0 1.40442,0.17456 0.73792,0.17456 1.52344,0.50781 l 0,1.84082 -0.84106,0 q -0.0317,-0.81726 -0.57129,-1.27747 -0.53955,-0.4602 -1.4679,-0.4602 -0.92041,0 -1.39648,0.32532 -0.46814,0.32531 -0.46814,0.97595 0,0.53162 0.35705,0.85693 0.35706,0.31739 1.42823,0.65064 l 1.15844,0.35705 q 1.19812,0.37293 1.72181,0.93628 0.53161,0.55542 0.53161,1.43616 0,1.19812 -0.92041,1.88843 -0.91247,0.68237 -2.52319,0.68237 -0.81726,0 -1.59485,-0.17456 -0.77759,-0.17456 -1.55518,-0.52368 z"
           style=""
           id="path4921" />
        <path
           d="m 206.70836,162.67618 -6.29212,0 0,0.0635 q 0,1.70594 0.6427,2.57874 0.6427,0.86487 1.89637,0.86487 0.96008,0 1.57104,-0.49988 0.6189,-0.50781 0.86487,-1.49963 l 1.17432,0 q -0.34912,1.38855 -1.29334,2.08679 -0.93628,0.69824 -2.46765,0.69824 -1.84875,0 -2.97546,-1.21399 -1.11878,-1.22192 -1.11878,-3.2373 0,-1.99952 1.10291,-3.22144 1.1029,-1.22192 2.89612,-1.22192 1.91223,0 2.93579,1.18225 1.02356,1.17431 1.06323,3.4198 z m -1.7218,-0.84107 q -0.0476,-1.47583 -0.62683,-2.22168 -0.57129,-0.75378 -1.65039,-0.75378 -1.0077,0 -1.58692,0.75378 -0.57922,0.75379 -0.70618,2.22168 l 4.57032,0 z"
           style=""
           id="path4923" />
        <path
           d="m 217.78502,164.7709 q -0.46814,0.65064 -1.0553,0.96802 -0.57922,0.31738 -1.31714,0.31738 -1.38855,0 -2.25342,-0.99182 -0.86486,-0.99182 -0.86486,-2.58667 0,-1.59484 0.86486,-2.57873 0.86487,-0.99182 2.25342,-0.99182 0.73792,0 1.31714,0.31738 0.58716,0.31738 1.0553,0.96802 l 0,-1.12671 1.23779,0 0,6.12549 q 1.34888,-0.29358 2.09473,-1.2854 0.74585,-0.99182 0.74585,-2.48352 0,-0.88074 -0.26978,-1.66626 -0.26977,-0.78553 -0.80139,-1.45203 -0.84106,-1.0553 -2.05505,-1.61072 -1.20606,-0.56335 -2.62635,-0.56335 -0.71411,0 -1.41235,0.15075 -0.69824,0.15076 -1.38061,0.46021 -1.60279,0.73791 -2.49146,2.23755 -0.88867,1.4917 -0.88867,3.45154 0,1.32507 0.39673,2.44384 0.39673,1.11084 1.15051,1.9281 0.86487,0.94422 2.04712,1.43616 1.19018,0.49988 2.56287,0.49988 1.02356,0 1.91223,-0.30151 0.88867,-0.30152 1.65039,-0.90454 l 0.42053,0.55541 q -0.85693,0.73792 -1.94397,1.10291 -1.08704,0.37293 -2.38037,0.37293 -1.45203,0 -2.7771,-0.53162 -1.31714,-0.52368 -2.30896,-1.49963 -1.02356,-1.0077 -1.55518,-2.30103 -0.52368,-1.30127 -0.52368,-2.8009 0,-1.45996 0.53162,-2.7533 0.53161,-1.29333 1.54724,-2.30102 1.00769,-0.99976 2.37244,-1.53931 1.37268,-0.53955 2.91198,-0.53955 1.698,0 3.09449,0.65857 1.40441,0.65857 2.34863,1.89636 0.60303,0.77759 0.91247,1.69006 0.30945,0.91248 0.30945,1.89637 0,2.12646 -1.29333,3.36425 -1.29334,1.22986 -3.53089,1.25366 l -0.008,-1.2854 z m 0,-1.88049 0,-0.83313 q 0,-0.99182 -0.57129,-1.60278 -0.56335,-0.6189 -1.47583,-0.6189 -0.96008,0 -1.49963,0.69824 -0.53162,0.69031 -0.53162,1.94397 0,1.2616 0.53955,1.95984 0.53955,0.69031 1.50757,0.69031 0.90454,0 1.46789,-0.6189 0.56336,-0.62683 0.56336,-1.61865 z"
           style=""
           id="path4925" />
        <path
           d="m 224.43419,166.73868 0,-0.84107 1.31714,0 0,-10.66406 -1.39649,0 0,-0.84106 2.85645,0 0,5.41137 q 0.40466,-0.85693 1.04736,-1.29333 0.65064,-0.4364 1.50757,-0.4364 1.39648,0 2.05505,0.80139 0.65857,0.80139 0.65857,2.49939 l 0,4.5227 1.30127,0 0,0.84107 -4.03076,0 0,-0.84107 1.2616,0 0,-4.0625 q 0,-1.54724 -0.38086,-2.11059 -0.37293,-0.57129 -1.34094,-0.57129 -1.01563,0 -1.54725,0.73791 -0.53161,0.73792 -0.53161,2.15027 l 0,3.8562 1.26953,0 0,0.84107 -4.04663,0 z"
           style=""
           id="path4927" />
        <path
           d="m 240.70799,164.08853 0,-1.78528 -1.88049,0 q -1.08704,0 -1.61865,0.46814 -0.53162,0.46814 -0.53162,1.43616 0,0.88074 0.53955,1.39648 0.53955,0.51575 1.45996,0.51575 0.91248,0 1.4679,-0.56335 0.56335,-0.56336 0.56335,-1.4679 z m 1.45996,-2.61841 0,4.42749 1.30127,0 0,0.84107 -2.76123,0 0,-0.91248 q -0.48401,0.58716 -1.11877,0.86487 -0.63477,0.27771 -1.48377,0.27771 -1.40442,0 -2.22961,-0.74585 -0.8252,-0.74585 -0.8252,-2.01538 0,-1.3092 0.94422,-2.03125 0.94421,-0.72205 2.66601,-0.72205 l 2.04712,0 0,-0.57922 q 0,-0.96008 -0.58716,-1.48376 -0.57922,-0.53162 -1.63452,-0.53162 -0.8728,0 -1.38855,0.39673 -0.51574,0.39673 -0.6427,1.17431 l -0.75378,0 0,-1.70593 q 0.76172,-0.32532 1.47583,-0.48401 0.72204,-0.16662 1.40442,-0.16662 1.75354,0 2.66601,0.8728 0.92041,0.86487 0.92041,2.52319 z"
           style=""
           id="path4929" />
        <path
           d="m 247.25401,165.89761 1.38062,0 0,0.84107 -4.245,0 0,-0.84107 1.40442,0 0,-10.66406 -1.40442,0 0,-0.84106 2.86438,0 0,11.50512 z"
           style=""
           id="path4931" />
        <path
           d="m 250.99913,165.89761 0,-10.66406 -1.40442,0 0,-0.84106 2.86438,0 0,5.22888 q 0.42847,-0.79346 1.08704,-1.16638 0.6665,-0.38086 1.64245,-0.38086 1.55518,0 2.53907,1.22986 0.98388,1.22985 0.98388,3.2135 0,1.98364 -0.98388,3.22143 -0.98389,1.22986 -2.53907,1.22986 -0.97595,0 -1.64245,-0.37292 -0.65857,-0.38086 -1.08704,-1.17432 l 0,1.31714 -2.86438,0 0,-0.84107 1.40442,0 z m 1.45996,-2.95959 q 0,1.52344 0.57922,2.32483 0.58716,0.79345 1.698,0.79345 1.11878,0 1.69007,-0.8966 0.57922,-0.89661 0.57922,-2.64221 0,-1.75354 -0.57922,-2.64222 -0.57129,-0.88867 -1.69007,-0.88867 -1.11084,0 -1.698,0.80139 -0.57922,0.8014 -0.57922,2.3169 l 0,0.83313 z"
           style=""
           id="path4933" />
        <path
           d="m 267.33641,158.30423 2.1582,6.58569 1.9043,-5.73669 -1.22192,0 0,-0.849 3.05481,0 0,0.849 -0.93628,0 -2.50733,7.58545 -1.21399,0 -2.07885,-6.30799 -2.0868,6.30799 -1.16638,0 -2.49939,-7.58545 -0.94421,0 0,-0.849 3.81653,0 0,0.849 -1.36475,0 1.88843,5.73669 2.17407,-6.58569 1.02356,0 z"
           style=""
           id="path4935" />
        <path
           d="m 275.01707,155.68582 q 0,-0.36499 0.26185,-0.63476 0.26977,-0.26978 0.6427,-0.26978 0.36499,0 0.62683,0.26978 0.26977,0.26977 0.26977,0.63476 0,0.37293 -0.26184,0.63477 -0.26184,0.26184 -0.63476,0.26184 -0.37293,0 -0.6427,-0.26184 -0.26185,-0.26184 -0.26185,-0.63477 z m 1.86463,10.21179 1.38061,0 0,0.84107 -4.23706,0 0,-0.84107 1.39649,0 0,-6.74438 -1.39649,0 0,-0.849 2.85645,0 0,7.59338 z"
           style=""
           id="path4937" />
        <path
           d="m 281.97569,165.89761 1.38062,0 0,0.84107 -4.245,0 0,-0.84107 1.40442,0 0,-10.66406 -1.40442,0 0,-0.84106 2.86438,0 0,11.50512 z"
           style=""
           id="path4939" />
        <path
           d="m 292.37791,165.89761 1.39649,0 0,0.84107 -2.85645,0 0,-1.31714 q -0.42846,0.79346 -1.09497,1.17432 -0.65857,0.37292 -1.63452,0.37292 -1.55517,0 -2.547,-1.22986 -0.98388,-1.23779 -0.98388,-3.22143 0,-1.98365 0.98388,-3.2135 0.98389,-1.22986 2.547,-1.22986 0.97595,0 1.63452,0.38086 0.66651,0.37292 1.09497,1.16638 l 0,-4.38782 -1.38061,0 0,-0.84106 2.84057,0 0,11.50512 z m -1.45996,-2.95959 0,-0.83313 q 0,-1.5155 -0.58715,-2.3169 -0.57923,-0.80139 -1.69007,-0.80139 -1.12671,0 -1.70593,0.88867 -0.57129,0.88868 -0.57129,2.64222 0,1.7456 0.57129,2.64221 0.57922,0.8966 1.70593,0.8966 1.11084,0 1.69007,-0.79345 0.58715,-0.80139 0.58715,-2.32483 z"
           style=""
           id="path4941" />
        <path
           d="m 303.06578,162.67618 -6.29211,0 0,0.0635 q 0,1.70594 0.6427,2.57874 0.6427,0.86487 1.89636,0.86487 0.96008,0 1.57104,-0.49988 0.6189,-0.50781 0.86487,-1.49963 l 1.17432,0 q -0.34912,1.38855 -1.29334,2.08679 -0.93628,0.69824 -2.46765,0.69824 -1.84875,0 -2.97546,-1.21399 -1.11878,-1.22192 -1.11878,-3.2373 0,-1.99952 1.10291,-3.22144 1.1029,-1.22192 2.89612,-1.22192 1.91223,0 2.93579,1.18225 1.02356,1.17431 1.06323,3.4198 z m -1.7218,-0.84107 q -0.0476,-1.47583 -0.62683,-2.22168 -0.57129,-0.75378 -1.65039,-0.75378 -1.00769,0 -1.58692,0.75378 -0.57922,0.75379 -0.70617,2.22168 l 4.57031,0 z"
           style=""
           id="path4943" />
        <path
           d="m 305.40648,165.91348 q 0,-0.44433 0.30151,-0.75378 0.30152,-0.30945 0.75379,-0.30945 0.4364,0 0.74585,0.30945 0.30944,0.30945 0.30944,0.75378 0,0.4364 -0.30944,0.74585 -0.30945,0.30945 -0.74585,0.30945 -0.45227,0 -0.75379,-0.30151 -0.30151,-0.30945 -0.30151,-0.75379 z"
           style=""
           id="path4945" />
        <path
           d="m 317.40355,164.20755 q -0.30945,1.34888 -1.19019,2.05505 -0.88073,0.70618 -2.27722,0.70618 -1.84082,0 -2.95959,-1.21399 -1.11878,-1.22192 -1.11878,-3.2373 0,-2.02332 1.11878,-3.22937 1.11877,-1.21399 2.95959,-1.21399 0.80139,0 1.59485,0.19043 0.79346,0.18249 1.59485,0.56335 l 0,2.1582 -0.849,0 q -0.16663,-1.11084 -0.72998,-1.61865 -0.55542,-0.50781 -1.59485,-0.50781 -1.18225,0 -1.78528,0.92041 -0.60302,0.91248 -0.60302,2.73743 0,1.82495 0.59509,2.74536 0.60303,0.92041 1.79321,0.92041 0.94421,0 1.50757,-0.49195 0.56335,-0.49194 0.76965,-1.48376 l 1.17432,0 z"
           style=""
           id="path4947" />
        <path
           d="m 323.04503,166.18326 q 1.17432,0 1.76941,-0.92835 0.60303,-0.92834 0.60303,-2.73742 0,-1.80909 -0.60303,-2.7295 -0.59509,-0.92834 -1.76941,-0.92834 -1.17432,0 -1.77735,0.92834 -0.59509,0.92041 -0.59509,2.7295 0,1.80908 0.60303,2.73742 0.60303,0.92835 1.76941,0.92835 z m 0,0.78552 q -1.84082,0 -2.9596,-1.21399 -1.11877,-1.22192 -1.11877,-3.2373 0,-2.01538 1.11084,-3.22937 1.11877,-1.21399 2.96753,-1.21399 1.84875,0 2.95959,1.21399 1.11878,1.21399 1.11878,3.22937 0,2.01538 -1.11878,3.2373 -1.11084,1.21399 -2.95959,1.21399 z"
           style=""
           id="path4949" />
        <path
           d="m 336.3513,159.94669 q 0.42054,-0.92835 1.07117,-1.39649 0.65857,-0.47607 1.53137,-0.47607 1.32508,0 1.97571,0.82519 0.65063,0.81726 0.65063,2.47559 l 0,4.5227 1.31714,0 0,0.84107 -4.04663,0 0,-0.84107 1.26953,0 0,-4.35608 q 0,-1.29333 -0.38086,-1.84082 -0.38085,-0.54748 -1.26159,-0.54748 -0.97595,0 -1.4917,0.73791 -0.50781,0.73792 -0.50781,2.15027 l 0,3.8562 1.26953,0 0,0.84107 -3.99903,0 0,-0.84107 1.26954,0 0,-4.41162 q 0,-1.26159 -0.38086,-1.79321 -0.38086,-0.53955 -1.2616,-0.53955 -0.97595,0 -1.4917,0.73791 -0.50781,0.73792 -0.50781,2.15027 l 0,3.8562 1.26953,0 0,0.84107 -4.04663,0 0,-0.84107 1.31714,0 0,-6.76025 -1.39649,0 0,-0.83313 2.85645,0 0,1.49963 q 0.40466,-0.84106 1.03149,-1.2854 0.62683,-0.44433 1.42029,-0.44433 0.98389,0 1.64246,0.49194 0.65857,0.48401 0.88073,1.38062 z"
           style=""
           id="path4951" />
      </g>
    </g>
  </g>
</svg>
