<?xml version="1.0" encoding="UTF-8" standalone="no"?>
<!-- Created with Inkscape (http://www.inkscape.org/) -->

<svg
   xmlns:dc="http://purl.org/dc/elements/1.1/"
   xmlns:cc="http://creativecommons.org/ns#"
   xmlns:rdf="http://www.w3.org/1999/02/22-rdf-syntax-ns#"
   xmlns:svg="http://www.w3.org/2000/svg"
   xmlns="http://www.w3.org/2000/svg"
   xmlns:sodipodi="http://sodipodi.sourceforge.net/DTD/sodipodi-0.dtd"
   xmlns:inkscape="http://www.inkscape.org/namespaces/inkscape"
   width="62.931389mm"
   height="4.4383163mm"
   viewBox="0 0 222.98524 15.726318"
   id="svg2"
   version="1.1"
   inkscape:version="0.91 r13725"
   sodipodi:docname="eml_praesident.svg">
  <defs
     id="defs4" />
  <sodipodi:namedview
     id="base"
     pagecolor="#ffffff"
     bordercolor="#666666"
     borderopacity="1.0"
     inkscape:pageopacity="0.0"
     inkscape:pageshadow="2"
     inkscape:zoom="3.959798"
     inkscape:cx="99.699661"
     inkscape:cy="-28.803347"
     inkscape:document-units="px"
     inkscape:current-layer="text4160"
     showgrid="false"
     fit-margin-top="0"
     fit-margin-left="0"
     fit-margin-right="0"
     fit-margin-bottom="0"
     inkscape:window-width="1920"
     inkscape:window-height="1029"
     inkscape:window-x="0"
     inkscape:window-y="0"
     inkscape:window-maximized="1" />
  <metadata
     id="metadata7">
    <rdf:RDF>
      <cc:Work
         rdf:about="">
        <dc:format>image/svg+xml</dc:format>
        <dc:type
           rdf:resource="http://purl.org/dc/dcmitype/StillImage" />
        <dc:title></dc:title>
      </cc:Work>
    </rdf:RDF>
  </metadata>
  <g
     inkscape:label="Layer 1"
     inkscape:groupmode="layer"
     id="layer1"
     transform="translate(-62.658656,-54.594126)">
    <text
       xml:space="preserve"
       style="font-style:normal;font-variant:normal;font-weight:normal;font-stretch:normal;font-size:15px;line-height:89.99999762%;font-family:'Bitstream Vera Serif';-inkscape-font-specification:'Bitstream Vera Serif';text-align:start;writing-mode:lr-tb;text-anchor:start;fill:#000000;fill-opacity:0;fill-rule:evenodd;stroke:none;stroke-width:0.5;stroke-miterlimit:4;stroke-dasharray:none;stroke-opacity:1"
       x="80.307129"
       y="84.130989"
       id="text4136"
       sodipodi:linespacing="89.999998%"><tspan
         sodipodi:role="line"
         id="tspan4138"
         x="80.307129"
         y="84.130989" /></text>
    <g
       transform="translate(-27.779195,-52.022856)"
       style="font-style:normal;font-variant:normal;font-weight:normal;font-stretch:normal;font-size:15px;line-height:89.99999762%;font-family:'Bitstream Vera Serif';-inkscape-font-specification:'Bitstream Vera Serif';text-align:start;writing-mode:lr-tb;text-anchor:start;fill:#000000;fill-opacity:1;fill-rule:evenodd;stroke:none;stroke-width:0.5;stroke-miterlimit:4;stroke-dasharray:none;stroke-opacity:1"
       id="flowRoot4140">
      <g
         style="font-style:normal;font-variant:normal;font-weight:normal;font-stretch:normal;font-size:17.5px;line-height:89.99999762%;font-family:'DejaVu Serif';-inkscape-font-specification:'DejaVu Serif, Normal';text-align:start;writing-mode:lr-tb;text-anchor:start;fill:#000000;fill-opacity:1;fill-rule:evenodd;stroke:none;stroke-width:0.5;stroke-miterlimit:4;stroke-dasharray:none;stroke-opacity:1"
         id="text4160">
        <g
           style="font-style:normal;font-variant:normal;font-weight:normal;font-stretch:normal;font-size:16.25px;line-height:120.00000477%;font-family:'DejaVu Serif';-inkscape-font-specification:'DejaVu Serif, Normal';text-align:start;writing-mode:lr-tb;text-anchor:start;fill:#000000;fill-opacity:1;fill-rule:evenodd;stroke:none;stroke-width:0.5;stroke-miterlimit:4;stroke-dasharray:none;stroke-opacity:1"
           id="text4213">
          <path
             d="m 93.302231,114.32938 0,0.83313 q 0,1.52344 0.579223,2.32483 0.587159,0.79346 1.697999,0.79346 1.118774,0 1.690063,-0.89661 0.579224,-0.8966 0.579224,-2.64221 0,-1.75354 -0.579224,-2.64221 -0.571289,-0.88867 -1.690063,-0.88867 -1.11084,0 -1.697999,0.80139 -0.579223,0.80139 -0.579223,2.31689 z m -1.459961,-2.95166 -1.404419,0 0,-0.849 2.86438,0 0,1.31714 q 0.428467,-0.79345 1.087036,-1.16638 0.666504,-0.38086 1.642456,-0.38086 1.555176,0 2.539063,1.22986 0.983886,1.22986 0.983886,3.2135 0,1.98364 -0.983886,3.22144 -0.983887,1.22986 -2.539063,1.22986 -0.975952,0 -1.642456,-0.37293 -0.658569,-0.38086 -1.087036,-1.17432 l 0,3.84827 1.380615,0 0,0.849 -4.244995,0 0,-0.849 1.404419,0 0,-10.11658 z"
             style=""
             id="path4226" />
          <path
             d="m 108.14781,110.51286 0,2.11059 -0.84106,0 q -0.0397,-0.62683 -0.34912,-0.93628 -0.30945,-0.30945 -0.90454,-0.30945 -1.07911,0 -1.65833,0.74585 -0.57129,0.74585 -0.57129,2.14234 l 0,3.8562 1.69006,0 0,0.84106 -4.46716,0 0,-0.84106 1.31714,0 0,-6.76026 -1.39648,0 0,-0.83313 2.85644,0 0,1.49964 q 0.42847,-0.88074 1.10291,-1.30127 0.67443,-0.42847 1.64245,-0.42847 0.35706,0 0.74585,0.0555 0.39673,0.0556 0.83313,0.1587 z"
             style=""
             id="path4228" />
          <path
             d="m 114.62242,116.31303 0,-1.78528 -1.88049,0 q -1.08704,0 -1.61865,0.46814 -0.53162,0.46814 -0.53162,1.43615 0,0.88074 0.53955,1.39649 0.53955,0.51575 1.45996,0.51575 0.91248,0 1.4679,-0.56336 0.56335,-0.56335 0.56335,-1.46789 z m 1.45996,-2.61841 0,4.42749 1.30127,0 0,0.84106 -2.76123,0 0,-0.91247 q -0.48401,0.58716 -1.11877,0.86487 -0.63477,0.27771 -1.48377,0.27771 -1.40442,0 -2.22961,-0.74585 -0.8252,-0.74585 -0.8252,-2.01539 0,-1.3092 0.94422,-2.03125 0.94421,-0.72204 2.66601,-0.72204 l 2.04712,0 0,-0.57922 q 0,-0.96009 -0.58716,-1.48377 -0.57922,-0.53162 -1.63452,-0.53162 -0.8728,0 -1.38855,0.39673 -0.51575,0.39673 -0.6427,1.17432 l -0.75378,0 0,-1.70593 q 0.76172,-0.32532 1.47583,-0.48401 0.72204,-0.16663 1.40442,-0.16663 1.75354,0 2.66601,0.8728 0.92041,0.86487 0.92041,2.5232 z"
             style=""
             id="path4230" />
          <path
             d="m 126.6433,114.90067 -6.29212,0 0,0.0635 q 0,1.70593 0.6427,2.57873 0.6427,0.86487 1.89636,0.86487 0.96009,0 1.57105,-0.49987 0.61889,-0.50782 0.86487,-1.49964 l 1.17431,0 q -0.34912,1.38855 -1.29333,2.08679 -0.93628,0.69825 -2.46765,0.69825 -1.84876,0 -2.97547,-1.21399 -1.11877,-1.22193 -1.11877,-3.23731 0,-1.99951 1.1029,-3.22143 1.10291,-1.22193 2.89612,-1.22193 1.91223,0 2.93579,1.18225 1.02356,1.17432 1.06324,3.4198 z m -1.72181,-0.84106 q -0.0476,-1.47583 -0.62683,-2.22168 -0.57129,-0.75379 -1.65039,-0.75379 -1.00769,0 -1.58691,0.75379 -0.57923,0.75378 -0.70618,2.22168 l 4.57031,0 z"
             style=""
             id="path4232" />
          <path
             d="m 128.3651,118.49503 0,-1.96777 0.84106,0 q 0.0317,0.94421 0.58716,1.41235 0.56335,0.46814 1.65832,0.46814 0.98389,0 1.49964,-0.36499 0.51575,-0.37292 0.51575,-1.0791 0,-0.55542 -0.38086,-0.89661 -0.37293,-0.34118 -1.58692,-0.72998 l -1.0553,-0.35705 q -1.08703,-0.34912 -1.57898,-0.8728 -0.484,-0.52369 -0.484,-1.33301 0,-1.15845 0.849,-1.81702 0.84899,-0.65857 2.34863,-0.65857 0.6665,0 1.40442,0.17456 0.73791,0.17456 1.52343,0.50782 l 0,1.84082 -0.84106,0 q -0.0317,-0.81727 -0.57129,-1.27747 -0.53955,-0.46021 -1.46789,-0.46021 -0.92041,0 -1.39649,0.32532 -0.46814,0.32532 -0.46814,0.97595 0,0.53162 0.35706,0.85694 0.35705,0.31738 1.42822,0.65063 l 1.15845,0.35706 q 1.19812,0.37292 1.7218,0.93628 0.53161,0.55542 0.53161,1.43615 0,1.19812 -0.92041,1.88843 -0.91247,0.68238 -2.52319,0.68238 -0.81726,0 -1.59485,-0.17457 -0.77759,-0.17456 -1.55517,-0.52368 z"
             style=""
             id="path4234" />
          <path
             d="m 137.37877,107.91032 q 0,-0.36499 0.26184,-0.63477 0.26978,-0.26977 0.6427,-0.26977 0.36499,0 0.62683,0.26977 0.26978,0.26978 0.26978,0.63477 0,0.37292 -0.26184,0.63476 -0.26185,0.26184 -0.63477,0.26184 -0.37292,0 -0.6427,-0.26184 -0.26184,-0.26184 -0.26184,-0.63476 z m 1.86462,10.21179 1.38062,0 0,0.84106 -4.23706,0 0,-0.84106 1.39648,0 0,-6.74439 -1.39648,0 0,-0.849 2.85644,0 0,7.59339 z"
             style=""
             id="path4236" />
          <path
             d="m 149.53453,118.12211 1.39649,0 0,0.84106 -2.85645,0 0,-1.31714 q -0.42847,0.79346 -1.09497,1.17432 -0.65857,0.37293 -1.63452,0.37293 -1.55518,0 -2.547,-1.22986 -0.98389,-1.2378 -0.98389,-3.22144 0,-1.98364 0.98389,-3.2135 0.98389,-1.22986 2.547,-1.22986 0.97595,0 1.63452,0.38086 0.6665,0.37293 1.09497,1.16638 l 0,-4.38781 -1.38062,0 0,-0.84107 2.84058,0 0,11.50513 z m -1.45996,-2.9596 0,-0.83313 q 0,-1.5155 -0.58716,-2.31689 -0.57922,-0.80139 -1.69006,-0.80139 -1.12671,0 -1.70593,0.88867 -0.57129,0.88867 -0.57129,2.64221 0,1.74561 0.57129,2.64221 0.57922,0.89661 1.70593,0.89661 1.11084,0 1.69006,-0.79346 0.58716,-0.80139 0.58716,-2.32483 z"
             style=""
             id="path4238" />
          <path
             d="m 160.2224,114.90067 -6.29212,0 0,0.0635 q 0,1.70593 0.6427,2.57873 0.6427,0.86487 1.89637,0.86487 0.96008,0 1.57104,-0.49987 0.6189,-0.50782 0.86487,-1.49964 l 1.17431,0 q -0.34912,1.38855 -1.29333,2.08679 -0.93628,0.69825 -2.46765,0.69825 -1.84876,0 -2.97547,-1.21399 -1.11877,-1.22193 -1.11877,-3.23731 0,-1.99951 1.10291,-3.22143 1.1029,-1.22193 2.89611,-1.22193 1.91223,0 2.93579,1.18225 1.02356,1.17432 1.06324,3.4198 z m -1.7218,-0.84106 q -0.0476,-1.47583 -0.62684,-2.22168 -0.57129,-0.75379 -1.65039,-0.75379 -1.00769,0 -1.58691,0.75379 -0.57922,0.75378 -0.70618,2.22168 l 4.57032,0 z"
             style=""
             id="path4240" />
          <path
             d="m 161.69823,118.96317 0,-0.84106 1.31714,0 0,-6.74439 -1.39649,0 0,-0.849 2.85645,0 0,1.49964 q 0.40466,-0.85694 1.04736,-1.29334 0.65063,-0.4364 1.50757,-0.4364 1.39648,0 2.05505,0.80139 0.65857,0.8014 0.65857,2.49939 l 0,4.52271 1.30127,0 0,0.84106 -4.03076,0 0,-0.84106 1.2616,0 0,-4.0625 q 0,-1.54724 -0.38086,-2.11853 -0.38086,-0.57923 -1.34095,-0.57923 -1.01562,0 -1.54724,0.74585 -0.53161,0.73792 -0.53161,2.15821 l 0,3.8562 1.26953,0 0,0.84106 -4.04663,0 z"
             style=""
             id="path4242" />
          <path
             d="m 173.2589,111.37772 -1.2854,0 0,-0.849 1.2854,0 0,-2.6184 1.46789,0 0,2.6184 2.74536,0 0,0.849 -2.74536,0 0,5.35584 q 0,1.07117 0.2063,1.37268 0.2063,0.30151 0.76172,0.30151 0.57129,0 0.83313,-0.33325 0.26184,-0.34119 0.27771,-1.09497 l 1.1029,0 q -0.0635,1.15051 -0.62683,1.68213 -0.56335,0.53162 -1.71386,0.53162 -1.2616,0 -1.78528,-0.55542 -0.52368,-0.56336 -0.52368,-1.9043 l 0,-5.35584 z"
             style=""
             id="path4244" />
          <path
             d="m 188.31078,116.9954 q -0.46814,0.65063 -1.0553,0.96802 -0.57923,0.31738 -1.31714,0.31738 -1.38855,0 -2.25342,-0.99182 -0.86487,-0.99182 -0.86487,-2.58667 0,-1.59485 0.86487,-2.57874 0.86487,-0.99182 2.25342,-0.99182 0.73791,0 1.31714,0.31738 0.58716,0.31739 1.0553,0.96802 l 0,-1.12671 1.23779,0 0,6.12549 q 1.34888,-0.29358 2.09473,-1.2854 0.74584,-0.99182 0.74584,-2.48352 0,-0.88074 -0.26977,-1.66626 -0.26978,-0.78552 -0.80139,-1.45203 -0.84107,-1.05529 -2.05506,-1.61071 -1.20605,-0.56336 -2.62634,-0.56336 -0.71411,0 -1.41235,0.15076 -0.69824,0.15076 -1.38062,0.4602 -1.60278,0.73792 -2.49145,2.23755 -0.88867,1.4917 -0.88867,3.45154 0,1.32507 0.39672,2.44385 0.39673,1.11084 1.15052,1.9281 0.86487,0.94421 2.04712,1.43616 1.19018,0.49987 2.56286,0.49987 1.02356,0 1.91223,-0.30151 0.88868,-0.30151 1.65039,-0.90454 l 0.42054,0.55542 q -0.85694,0.73791 -1.94397,1.10291 -1.08704,0.37292 -2.38037,0.37292 -1.45203,0 -2.7771,-0.53162 -1.31714,-0.52368 -2.30896,-1.49963 -1.02356,-1.00769 -1.55518,-2.30103 -0.52368,-1.30126 -0.52368,-2.8009 0,-1.45996 0.53161,-2.75329 0.53162,-1.29334 1.54725,-2.30103 1.00769,-0.99976 2.37243,-1.53931 1.37268,-0.53955 2.91199,-0.53955 1.698,0 3.09448,0.65857 1.40442,0.65857 2.34864,1.89636 0.60302,0.77759 0.91247,1.69007 0.30945,0.91247 0.30945,1.89636 0,2.12646 -1.29334,3.36426 -1.29333,1.22986 -3.53088,1.25366 l -0.008,-1.2854 z m 0,-1.88049 0,-0.83313 q 0,-0.99182 -0.57129,-1.60279 -0.56336,-0.61889 -1.47583,-0.61889 -0.96009,0 -1.49964,0.69824 -0.53161,0.69031 -0.53161,1.94397 0,1.2616 0.53955,1.95984 0.53955,0.69031 1.50757,0.69031 0.90454,0 1.46789,-0.6189 0.56336,-0.62683 0.56336,-1.61865 z"
             style=""
             id="path4246" />
          <path
             d="m 194.95995,118.96317 0,-0.84106 1.31713,0 0,-10.66406 -1.39648,0 0,-0.84107 2.85645,0 0,5.41138 q 0.40466,-0.85694 1.04736,-1.29334 0.65063,-0.4364 1.50757,-0.4364 1.39648,0 2.05505,0.80139 0.65857,0.8014 0.65857,2.49939 l 0,4.52271 1.30127,0 0,0.84106 -4.03076,0 0,-0.84106 1.26159,0 0,-4.0625 q 0,-1.54724 -0.38085,-2.1106 -0.37293,-0.57129 -1.34095,-0.57129 -1.01562,0 -1.54724,0.73792 -0.53161,0.73791 -0.53161,2.15027 l 0,3.8562 1.26953,0 0,0.84106 -4.04663,0 z"
             style=""
             id="path4248" />
          <path
             d="m 211.23375,116.31303 0,-1.78528 -1.88049,0 q -1.08704,0 -1.61866,0.46814 -0.53161,0.46814 -0.53161,1.43615 0,0.88074 0.53955,1.39649 0.53955,0.51575 1.45996,0.51575 0.91247,0 1.46789,-0.56336 0.56336,-0.56335 0.56336,-1.46789 z m 1.45996,-2.61841 0,4.42749 1.30127,0 0,0.84106 -2.76123,0 0,-0.91247 q -0.48401,0.58716 -1.11878,0.86487 -0.63476,0.27771 -1.48376,0.27771 -1.40442,0 -2.22961,-0.74585 -0.8252,-0.74585 -0.8252,-2.01539 0,-1.3092 0.94421,-2.03125 0.94422,-0.72204 2.66602,-0.72204 l 2.04712,0 0,-0.57922 q 0,-0.96009 -0.58716,-1.48377 -0.57922,-0.53162 -1.63452,-0.53162 -0.8728,0 -1.38855,0.39673 -0.51575,0.39673 -0.6427,1.17432 l -0.75378,0 0,-1.70593 q 0.76171,-0.32532 1.47583,-0.48401 0.72204,-0.16663 1.40441,-0.16663 1.75354,0 2.66602,0.8728 0.92041,0.86487 0.92041,2.5232 z"
             style=""
             id="path4250" />
          <path
             d="m 217.77977,118.12211 1.38062,0 0,0.84106 -4.245,0 0,-0.84106 1.40442,0 0,-10.66406 -1.40442,0 0,-0.84107 2.86438,0 0,11.50513 z"
             style=""
             id="path4252" />
          <path
             d="m 221.52489,118.12211 0,-10.66406 -1.40442,0 0,-0.84107 2.86438,0 0,5.22888 q 0.42846,-0.79345 1.08703,-1.16638 0.66651,-0.38086 1.64246,-0.38086 1.55518,0 2.53906,1.22986 0.98389,1.22986 0.98389,3.2135 0,1.98364 -0.98389,3.22144 -0.98388,1.22986 -2.53906,1.22986 -0.97595,0 -1.64246,-0.37293 -0.65857,-0.38086 -1.08703,-1.17432 l 0,1.31714 -2.86438,0 0,-0.84106 1.40442,0 z m 1.45996,-2.9596 q 0,1.52344 0.57922,2.32483 0.58716,0.79346 1.698,0.79346 1.11877,0 1.69006,-0.89661 0.57923,-0.8966 0.57923,-2.64221 0,-1.75354 -0.57923,-2.64221 -0.57129,-0.88867 -1.69006,-0.88867 -1.11084,0 -1.698,0.80139 -0.57922,0.80139 -0.57922,2.31689 l 0,0.83313 z"
             style=""
             id="path4254" />
          <path
             d="m 237.86217,110.52872 2.1582,6.5857 1.9043,-5.7367 -1.22193,0 0,-0.849 3.05481,0 0,0.849 -0.93628,0 -2.50732,7.58545 -1.21399,0 -2.07886,-6.30798 -2.08679,6.30798 -1.16638,0 -2.49939,-7.58545 -0.94421,0 0,-0.849 3.81652,0 0,0.849 -1.36474,0 1.88843,5.7367 2.17407,-6.5857 1.02356,0 z"
             style=""
             id="path4256" />
          <path
             d="m 245.54283,107.91032 q 0,-0.36499 0.26184,-0.63477 0.26978,-0.26977 0.6427,-0.26977 0.36499,0 0.62683,0.26977 0.26978,0.26978 0.26978,0.63477 0,0.37292 -0.26184,0.63476 -0.26184,0.26184 -0.63477,0.26184 -0.37292,0 -0.6427,-0.26184 -0.26184,-0.26184 -0.26184,-0.63476 z m 1.86463,10.21179 1.38061,0 0,0.84106 -4.23706,0 0,-0.84106 1.39648,0 0,-6.74439 -1.39648,0 0,-0.849 2.85645,0 0,7.59339 z"
             style=""
             id="path4258" />
          <path
             d="m 252.50145,118.12211 1.38061,0 0,0.84106 -4.24499,0 0,-0.84106 1.40442,0 0,-10.66406 -1.40442,0 0,-0.84107 2.86438,0 0,11.50513 z"
             style=""
             id="path4260" />
          <path
             d="m 262.90367,118.12211 1.39649,0 0,0.84106 -2.85645,0 0,-1.31714 q -0.42847,0.79346 -1.09497,1.17432 -0.65857,0.37293 -1.63452,0.37293 -1.55518,0 -2.547,-1.22986 -0.98389,-1.2378 -0.98389,-3.22144 0,-1.98364 0.98389,-3.2135 0.98389,-1.22986 2.547,-1.22986 0.97595,0 1.63452,0.38086 0.6665,0.37293 1.09497,1.16638 l 0,-4.38781 -1.38061,0 0,-0.84107 2.84057,0 0,11.50513 z m -1.45996,-2.9596 0,-0.83313 q 0,-1.5155 -0.58716,-2.31689 -0.57922,-0.80139 -1.69006,-0.80139 -1.12671,0 -1.70593,0.88867 -0.57129,0.88867 -0.57129,2.64221 0,1.74561 0.57129,2.64221 0.57922,0.89661 1.70593,0.89661 1.11084,0 1.69006,-0.79346 0.58716,-0.80139 0.58716,-2.32483 z"
             style=""
             id="path4262" />
          <path
             d="m 273.59154,114.90067 -6.29212,0 0,0.0635 q 0,1.70593 0.6427,2.57873 0.6427,0.86487 1.89637,0.86487 0.96008,0 1.57104,-0.49987 0.6189,-0.50782 0.86487,-1.49964 l 1.17432,0 q -0.34913,1.38855 -1.29334,2.08679 -0.93628,0.69825 -2.46765,0.69825 -1.84876,0 -2.97546,-1.21399 -1.11878,-1.22193 -1.11878,-3.23731 0,-1.99951 1.10291,-3.22143 1.1029,-1.22193 2.89611,-1.22193 1.91224,0 2.9358,1.18225 1.02355,1.17432 1.06323,3.4198 z m -1.7218,-0.84106 q -0.0476,-1.47583 -0.62684,-2.22168 -0.57128,-0.75379 -1.65039,-0.75379 -1.00769,0 -1.58691,0.75379 -0.57922,0.75378 -0.70618,2.22168 l 4.57032,0 z"
             style=""
             id="path4264" />
          <path
             d="m 275.93224,118.13798 q 0,-0.44434 0.30151,-0.75379 0.30151,-0.30944 0.75378,-0.30944 0.4364,0 0.74585,0.30944 0.30945,0.30945 0.30945,0.75379 0,0.4364 -0.30945,0.74585 -0.30945,0.30945 -0.74585,0.30945 -0.45227,0 -0.75378,-0.30152 -0.30151,-0.30945 -0.30151,-0.75378 z"
             style=""
             id="path4266" />
          <path
             d="m 287.92931,116.43204 q -0.30945,1.34888 -1.19019,2.05506 -0.88074,0.70618 -2.27722,0.70618 -1.84082,0 -2.9596,-1.21399 -1.11877,-1.22193 -1.11877,-3.23731 0,-2.02331 1.11877,-3.22937 1.11878,-1.21399 2.9596,-1.21399 0.80139,0 1.59485,0.19043 0.79345,0.1825 1.59485,0.56336 l 0,2.1582 -0.849,0 q -0.16663,-1.11084 -0.72998,-1.61865 -0.55542,-0.50782 -1.59485,-0.50782 -1.18225,0 -1.78528,0.92041 -0.60303,0.91248 -0.60303,2.73743 0,1.82495 0.5951,2.74536 0.60302,0.92041 1.79321,0.92041 0.94421,0 1.50757,-0.49194 0.56335,-0.49194 0.76965,-1.48377 l 1.17432,0 z"
             style=""
             id="path4268" />
          <path
             d="m 293.57079,118.40775 q 1.17431,0 1.7694,-0.92834 0.60303,-0.92835 0.60303,-2.73743 0,-1.80908 -0.60303,-2.72949 -0.59509,-0.92835 -1.7694,-0.92835 -1.17432,0 -1.77735,0.92835 -0.59509,0.92041 -0.59509,2.72949 0,1.80908 0.60303,2.73743 0.60302,0.92834 1.76941,0.92834 z m 0,0.78553 q -1.84082,0 -2.9596,-1.21399 -1.11877,-1.22193 -1.11877,-3.23731 0,-2.01538 1.11084,-3.22937 1.11877,-1.21399 2.96753,-1.21399 1.84875,0 2.95959,1.21399 1.11877,1.21399 1.11877,3.22937 0,2.01538 -1.11877,3.23731 -1.11084,1.21399 -2.95959,1.21399 z"
             style=""
             id="path4270" />
          <path
             d="m 306.87706,112.17118 q 0.42053,-0.92834 1.07117,-1.39648 0.65857,-0.47608 1.53137,-0.47608 1.32507,0 1.97571,0.8252 0.65063,0.81726 0.65063,2.47558 l 0,4.52271 1.31714,0 0,0.84106 -4.04663,0 0,-0.84106 1.26953,0 0,-4.35608 q 0,-1.29334 -0.38086,-1.84082 -0.38086,-0.54749 -1.2616,-0.54749 -0.97595,0 -1.49169,0.73792 -0.50782,0.73791 -0.50782,2.15027 l 0,3.8562 1.26953,0 0,0.84106 -3.99902,0 0,-0.84106 1.26953,0 0,-4.41162 q 0,-1.2616 -0.38086,-1.79322 -0.38086,-0.53955 -1.26159,-0.53955 -0.97596,0 -1.4917,0.73792 -0.50782,0.73791 -0.50782,2.15027 l 0,3.8562 1.26954,0 0,0.84106 -4.04664,0 0,-0.84106 1.31714,0 0,-6.76026 -1.39648,0 0,-0.83313 2.85644,0 0,1.49964 q 0.40467,-0.84107 1.0315,-1.2854 0.62683,-0.44434 1.42029,-0.44434 0.98388,0 1.64245,0.49195 0.65857,0.484 0.88074,1.38061 z"
             style=""
             id="path4272" />
        </g>
        <flowRoot
           xml:space="preserve"
           id="flowRoot4217"
           style="fill-opacity:1;font-size:16.25px;text-anchor:start;text-align:start;-inkscape-font-specification:'DejaVu Serif, Normal';font-family:'DejaVu Serif';font-weight:normal;font-style:normal;font-stretch:normal;font-variant:normal;writing-mode:lr;line-height:120%;fill-rule:evenodd;fill:#000000;stroke:none;stroke-width:0.5;stroke-miterlimit:4;stroke-dasharray:none;stroke-opacity:1"><flowRegion
             id="flowRegion4219"><rect
               id="rect4221"
               width="272.74118"
               height="73.236061"
               x="-42.426407"
               y="-31.245775" /></flowRegion><flowPara
             id="flowPara4223"></flowPara></flowRoot>      </g>
    </g>
  </g>
</svg>
