<?xml version="1.0" encoding="UTF-8" standalone="no"?>
<!-- Created with Inkscape (http://www.inkscape.org/) -->

<svg
   xmlns:dc="http://purl.org/dc/elements/1.1/"
   xmlns:cc="http://creativecommons.org/ns#"
   xmlns:rdf="http://www.w3.org/1999/02/22-rdf-syntax-ns#"
   xmlns:svg="http://www.w3.org/2000/svg"
   xmlns="http://www.w3.org/2000/svg"
   xmlns:sodipodi="http://sodipodi.sourceforge.net/DTD/sodipodi-0.dtd"
   xmlns:inkscape="http://www.inkscape.org/namespaces/inkscape"
   width="56.092529mm"
   height="4.2815647mm"
   viewBox="0 0 198.75306 15.170898"
   id="svg2"
   version="1.1"
   inkscape:version="0.91 r13725"
   sodipodi:docname="eml_website.svg">
  <defs
     id="defs4" />
  <sodipodi:namedview
     id="base"
     pagecolor="#ffffff"
     bordercolor="#666666"
     borderopacity="1.0"
     inkscape:pageopacity="0.0"
     inkscape:pageshadow="2"
     inkscape:zoom="3.959798"
     inkscape:cx="145.51803"
     inkscape:cy="-1.8298855"
     inkscape:document-units="px"
     inkscape:current-layer="text4206"
     showgrid="false"
     fit-margin-top="0"
     fit-margin-left="0"
     fit-margin-right="0"
     fit-margin-bottom="0"
     inkscape:window-width="1920"
     inkscape:window-height="1029"
     inkscape:window-x="0"
     inkscape:window-y="0"
     inkscape:window-maximized="1" />
  <metadata
     id="metadata7">
    <rdf:RDF>
      <cc:Work
         rdf:about="">
        <dc:format>image/svg+xml</dc:format>
        <dc:type
           rdf:resource="http://purl.org/dc/dcmitype/StillImage" />
        <dc:title></dc:title>
      </cc:Work>
    </rdf:RDF>
  </metadata>
  <g
     inkscape:label="Layer 1"
     inkscape:groupmode="layer"
     id="layer1"
     transform="translate(-78.308922,-85.444061)">
    <g
       style="font-style:normal;font-variant:normal;font-weight:normal;font-stretch:normal;font-size:20px;line-height:89.99999762%;font-family:'Bitstream Vera Serif';-inkscape-font-specification:'Bitstream Vera Serif';text-align:start;writing-mode:lr-tb;text-anchor:start;fill:#000000;fill-opacity:1;fill-rule:evenodd;stroke:none;stroke-width:0.5;stroke-miterlimit:4;stroke-dasharray:none;stroke-opacity:1"
       id="flowRoot4136">
      <g
         style="font-style:normal;font-variant:normal;font-weight:normal;font-stretch:normal;font-size:17.5px;line-height:89.99999762%;font-family:'DejaVu Serif';-inkscape-font-specification:'DejaVu Serif';text-align:start;writing-mode:lr-tb;text-anchor:start;fill:#000000;fill-opacity:1;fill-rule:evenodd;stroke:none;stroke-width:0.5;stroke-miterlimit:4;stroke-dasharray:none;stroke-opacity:1"
         id="text4206">
        <g
           style="font-style:normal;font-variant:normal;font-weight:normal;font-stretch:normal;font-size:16.25px;line-height:89.99999762%;font-family:'DejaVu Serif';-inkscape-font-specification:'DejaVu Serif, Normal';text-align:start;writing-mode:lr-tb;text-anchor:start;fill:#000000;fill-opacity:1;fill-rule:evenodd;stroke:none;stroke-width:0.5;stroke-miterlimit:4;stroke-dasharray:none;stroke-opacity:1"
           id="text4863">
          <path
             d="m 85.846764,89.355804 2.158203,6.585694 1.904297,-5.736695 -1.221924,0 0,-0.848999 3.054809,0 0,0.848999 -0.936279,0 -2.507324,7.58545 -1.213989,0 -2.078858,-6.307984 -2.086792,6.307984 -1.166382,0 -2.499389,-7.58545 -0.944214,0 0,-0.848999 3.816528,0 0,0.848999 -1.364746,0 1.888428,5.736695 2.174072,-6.585694 1.02356,0 z"
             style=""
             id="path4872" />
          <path
             d="m 100.75582,93.727753 -6.292113,0 0,0.06348 q 0,1.705933 0.6427,2.578736 0.6427,0.864868 1.896362,0.864868 0.960083,0 1.571045,-0.499878 0.618897,-0.507813 0.864869,-1.499634 l 1.174317,0 q -0.34912,1.38855 -1.293336,2.086792 -0.936279,0.698242 -2.467651,0.698242 -1.848755,0 -2.975464,-1.213989 -1.118775,-1.221924 -1.118775,-3.237305 0,-1.999511 1.102906,-3.221435 1.102905,-1.221924 2.896118,-1.221924 1.912231,0 2.935791,1.182251 1.023561,1.174316 1.063231,3.4198 z m -1.721801,-0.841065 q -0.04761,-1.47583 -0.626831,-2.221679 -0.571289,-0.753785 -1.65039,-0.753785 -1.007691,0 -1.586914,0.753785 -0.579224,0.753784 -0.706177,2.221679 l 4.570312,0 z"
             style=""
             id="path4874" />
          <path
             d="m 103.43771,96.949188 0,-10.664062 -1.40442,0 0,-0.841065 2.86438,0 0,5.228882 q 0.42846,-0.793457 1.08703,-1.166382 0.66651,-0.380859 1.64246,-0.380859 1.55517,0 2.53906,1.229858 0.98389,1.229859 0.98389,3.213501 0,1.983643 -0.98389,3.221436 -0.98389,1.229858 -2.53906,1.229858 -0.97595,0 -1.64246,-0.372925 -0.65857,-0.380859 -1.08703,-1.174316 l 0,1.317139 -2.86438,0 0,-0.841065 1.40442,0 z m 1.45996,-2.959594 q 0,1.523437 0.57922,2.324829 0.58716,0.793457 1.698,0.793457 1.11877,0 1.69006,-0.896607 0.57923,-0.896606 0.57923,-2.642212 0,-1.75354 -0.57923,-2.642212 -0.57129,-0.888672 -1.69006,-0.888672 -1.11084,0 -1.698,0.801392 -0.57922,0.801392 -0.57922,2.316895 l 0,0.83313 z"
             style=""
             id="path4876" />
          <path
             d="m 112.88778,97.322113 0,-1.967773 0.84106,0 q 0.0317,0.944213 0.58716,1.412353 0.56336,0.46814 1.65833,0.46814 0.98388,0 1.49963,-0.36499 0.51575,-0.372925 0.51575,-1.079102 0,-0.55542 -0.38086,-0.896606 -0.37293,-0.341187 -1.58692,-0.729981 l -1.05529,-0.357056 q -1.08704,-0.349121 -1.57898,-0.872802 -0.48401,-0.523682 -0.48401,-1.333008 0,-1.158447 0.849,-1.817017 0.849,-0.658569 2.34863,-0.658569 0.6665,0 1.40442,0.17456 0.73791,0.174561 1.52344,0.507813 l 0,1.84082 -0.84107,0 q -0.0317,-0.81726 -0.57129,-1.277466 -0.53955,-0.460205 -1.46789,-0.460205 -0.92041,0 -1.39649,0.325318 -0.46814,0.325317 -0.46814,0.975952 0,0.531616 0.35706,0.856933 0.35705,0.317383 1.42822,0.650635 l 1.15845,0.357056 q 1.19812,0.372925 1.7218,0.936279 0.53162,0.55542 0.53162,1.436157 0,1.198121 -0.92041,1.888428 -0.91248,0.682373 -2.5232,0.682373 -0.81726,0 -1.59484,-0.17456 -0.77759,-0.174561 -1.55518,-0.523682 z"
             style=""
             id="path4878" />
          <path
             d="m 121.90145,86.737396 q 0,-0.36499 0.26184,-0.634765 0.26978,-0.269776 0.6427,-0.269776 0.36499,0 0.62683,0.269776 0.26978,0.269775 0.26978,0.634765 0,0.372925 -0.26184,0.634766 -0.26184,0.261841 -0.63477,0.261841 -0.37292,0 -0.6427,-0.261841 -0.26184,-0.261841 -0.26184,-0.634766 z m 1.86463,10.211792 1.38061,0 0,0.841065 -4.23706,0 0,-0.841065 1.39648,0 0,-6.744385 -1.39648,0 0,-0.848999 2.85645,0 0,7.593384 z"
             style=""
             id="path4880" />
          <path
             d="m 127.28109,90.204803 -1.2854,0 0,-0.848999 1.2854,0 0,-2.618408 1.4679,0 0,2.618408 2.74536,0 0,0.848999 -2.74536,0 0,5.355835 q 0,1.071167 0.20629,1.372681 0.2063,0.301514 0.76172,0.301514 0.57129,0 0.83313,-0.333252 0.26184,-0.341187 0.27771,-1.094971 l 1.10291,0 q -0.0635,1.150513 -0.62683,1.682129 -0.56336,0.531616 -1.71387,0.531616 -1.2616,0 -1.78528,-0.55542 -0.52368,-0.563354 -0.52368,-1.904297 l 0,-5.355835 z"
             style=""
             id="path4882" />
          <path
             d="m 140.87301,93.727753 -6.29212,0 0,0.06348 q 0,1.705933 0.6427,2.578736 0.6427,0.864868 1.89637,0.864868 0.96008,0 1.57104,-0.499878 0.6189,-0.507813 0.86487,-1.499634 l 1.17432,0 q -0.34912,1.38855 -1.29334,2.086792 -0.93628,0.698242 -2.46765,0.698242 -1.84875,0 -2.97546,-1.213989 -1.11878,-1.221924 -1.11878,-3.237305 0,-1.999511 1.10291,-3.221435 1.1029,-1.221924 2.89612,-1.221924 1.91223,0 2.93579,1.182251 1.02356,1.174316 1.06323,3.4198 z m -1.7218,-0.841065 q -0.0476,-1.47583 -0.62683,-2.221679 -0.57129,-0.753785 -1.65039,-0.753785 -1.0077,0 -1.58692,0.753785 -0.57922,0.753784 -0.70618,2.221679 l 4.57032,0 z"
             style=""
             id="path4884" />
          <path
             d="m 151.94967,95.822479 q -0.46814,0.650635 -1.0553,0.968018 -0.57922,0.317383 -1.31714,0.317383 -1.38855,0 -2.25342,-0.991822 -0.86486,-0.991821 -0.86486,-2.58667 0,-1.594848 0.86486,-2.578735 0.86487,-0.991821 2.25342,-0.991821 0.73792,0 1.31714,0.317383 0.58716,0.317382 1.0553,0.968017 l 0,-1.126709 1.23779,0 0,6.125488 q 1.34888,-0.293579 2.09473,-1.2854 0.74585,-0.991821 0.74585,-2.48352 0,-0.880738 -0.26978,-1.66626 -0.26977,-0.785523 -0.80139,-1.452027 -0.84106,-1.055297 -2.05505,-1.610717 -1.20606,-0.563355 -2.62635,-0.563355 -0.71411,0 -1.41235,0.150757 -0.69824,0.150757 -1.38061,0.460205 -1.60279,0.737915 -2.49146,2.237549 -0.88867,1.491699 -0.88867,3.451538 0,1.325073 0.39673,2.443848 0.39673,1.11084 1.15051,1.9281 0.86487,0.944214 2.04712,1.436157 1.19018,0.499878 2.56287,0.499878 1.02355,0 1.91223,-0.301513 0.88867,-0.301514 1.65039,-0.904541 l 0.42053,0.55542 q -0.85693,0.737915 -1.94397,1.1029 -1.08704,0.37293 -2.38037,0.37293 -1.45203,0 -2.7771,-0.53162 -1.31714,-0.523678 -2.30896,-1.49963 -1.02356,-1.007691 -1.55518,-2.301026 -0.52368,-1.301269 -0.52368,-2.800903 0,-1.459961 0.53162,-2.753296 0.53161,-1.293335 1.54724,-2.301025 1.00769,-0.999756 2.37244,-1.539307 1.37268,-0.539551 2.91198,-0.539551 1.698,0 3.09449,0.65857 1.40441,0.658569 2.34863,1.896362 0.60303,0.777588 0.91247,1.690063 0.30945,0.912476 0.30945,1.896363 0,2.126465 -1.29333,3.364258 -1.29334,1.229858 -3.53089,1.253662 l -0.008,-1.285401 z m 0,-1.880493 0,-0.83313 q 0,-0.991821 -0.57129,-1.602783 -0.56335,-0.618896 -1.47583,-0.618896 -0.96008,0 -1.49963,0.698242 -0.53162,0.690307 -0.53162,1.943969 0,1.261597 0.53955,1.959839 0.53955,0.690308 1.50757,0.690308 0.90454,0 1.46789,-0.618897 0.56336,-0.626831 0.56336,-1.618652 z"
             style=""
             id="path4886" />
          <path
             d="m 158.59884,97.790253 0,-0.841065 1.31714,0 0,-10.664062 -1.39649,0 0,-0.841065 2.85645,0 0,5.411377 q 0.40466,-0.856933 1.04736,-1.293335 0.65064,-0.436401 1.50757,-0.436401 1.39648,0 2.05505,0.801392 0.65857,0.801391 0.65857,2.499389 l 0,4.522705 1.30127,0 0,0.841065 -4.03076,0 0,-0.841065 1.2616,0 0,-4.0625 q 0,-1.547241 -0.38086,-2.110595 -0.37293,-0.57129 -1.34094,-0.57129 -1.01563,0 -1.54725,0.737916 -0.53161,0.737915 -0.53161,2.150268 l 0,3.856201 1.26953,0 0,0.841065 -4.04663,0 z"
             style=""
             id="path4888" />
          <path
             d="m 174.87264,95.140106 0,-1.785278 -1.88049,0 q -1.08704,0 -1.61865,0.46814 -0.53162,0.468139 -0.53162,1.436157 0,0.880737 0.53955,1.396484 0.53955,0.515747 1.45996,0.515747 0.91248,0 1.4679,-0.563354 0.56335,-0.563355 0.56335,-1.467896 z m 1.45996,-2.618408 0,4.42749 1.30127,0 0,0.841065 -2.76123,0 0,-0.912476 q -0.48401,0.587158 -1.11877,0.864868 -0.63477,0.27771 -1.48377,0.27771 -1.40442,0 -2.22961,-0.745849 -0.8252,-0.74585 -0.8252,-2.015381 0,-1.309204 0.94422,-2.03125 0.94421,-0.722046 2.66601,-0.722046 l 2.04712,0 0,-0.579224 q 0,-0.960083 -0.58716,-1.483764 -0.57922,-0.531617 -1.63452,-0.531617 -0.8728,0 -1.38855,0.396729 -0.51574,0.396728 -0.6427,1.174316 l -0.75378,0 0,-1.705932 q 0.76172,-0.325318 1.47583,-0.484009 0.72204,-0.166626 1.40442,-0.166626 1.75354,0 2.66601,0.872803 0.92041,0.864868 0.92041,2.523193 z"
             style=""
             id="path4890" />
          <path
             d="m 181.41866,96.949188 1.38062,0 0,0.841065 -4.245,0 0,-0.841065 1.40442,0 0,-10.664062 -1.40442,0 0,-0.841065 2.86438,0 0,11.505127 z"
             style=""
             id="path4892" />
          <path
             d="m 185.16378,96.949188 0,-10.664062 -1.40442,0 0,-0.841065 2.86438,0 0,5.228882 q 0.42847,-0.793457 1.08704,-1.166382 0.6665,-0.380859 1.64245,-0.380859 1.55518,0 2.53907,1.229858 0.98388,1.229859 0.98388,3.213501 0,1.983643 -0.98388,3.221436 -0.98389,1.229858 -2.53907,1.229858 -0.97595,0 -1.64245,-0.372925 -0.65857,-0.380859 -1.08704,-1.174316 l 0,1.317139 -2.86438,0 0,-0.841065 1.40442,0 z m 1.45996,-2.959594 q 0,1.523437 0.57922,2.324829 0.58716,0.793457 1.698,0.793457 1.11878,0 1.69007,-0.896607 0.57922,-0.896606 0.57922,-2.642212 0,-1.75354 -0.57922,-2.642212 -0.57129,-0.888672 -1.69007,-0.888672 -1.11084,0 -1.698,0.801392 -0.57922,0.801392 -0.57922,2.316895 l 0,0.83313 z"
             style=""
             id="path4894" />
          <path
             d="m 201.50106,89.355804 2.1582,6.585694 1.9043,-5.736695 -1.22192,0 0,-0.848999 3.05481,0 0,0.848999 -0.93628,0 -2.50733,7.58545 -1.21399,0 -2.07885,-6.307984 -2.0868,6.307984 -1.16638,0 -2.49939,-7.58545 -0.94421,0 0,-0.848999 3.81653,0 0,0.848999 -1.36475,0 1.88843,5.736695 2.17407,-6.585694 1.02356,0 z"
             style=""
             id="path4896" />
          <path
             d="m 209.18172,86.737396 q 0,-0.36499 0.26185,-0.634765 0.26977,-0.269776 0.6427,-0.269776 0.36499,0 0.62683,0.269776 0.26977,0.269775 0.26977,0.634765 0,0.372925 -0.26184,0.634766 -0.26184,0.261841 -0.63476,0.261841 -0.37293,0 -0.6427,-0.261841 -0.26185,-0.261841 -0.26185,-0.634766 z m 1.86463,10.211792 1.38061,0 0,0.841065 -4.23706,0 0,-0.841065 1.39649,0 0,-6.744385 -1.39649,0 0,-0.848999 2.85645,0 0,7.593384 z"
             style=""
             id="path4898" />
          <path
             d="m 216.14034,96.949188 1.38062,0 0,0.841065 -4.245,0 0,-0.841065 1.40442,0 0,-10.664062 -1.40442,0 0,-0.841065 2.86438,0 0,11.505127 z"
             style=""
             id="path4900" />
          <path
             d="m 226.54256,96.949188 1.39649,0 0,0.841065 -2.85645,0 0,-1.317139 q -0.42846,0.793457 -1.09497,1.174316 -0.65857,0.372925 -1.63452,0.372925 -1.55517,0 -2.547,-1.229858 -0.98388,-1.237793 -0.98388,-3.221436 0,-1.983642 0.98388,-3.213501 0.98389,-1.229858 2.547,-1.229858 0.97595,0 1.63452,0.380859 0.66651,0.372925 1.09497,1.166382 l 0,-4.387817 -1.38061,0 0,-0.841065 2.84057,0 0,11.505127 z m -1.45996,-2.959594 0,-0.83313 q 0,-1.515503 -0.58715,-2.316895 -0.57923,-0.801392 -1.69007,-0.801392 -1.12671,0 -1.70593,0.888672 -0.57129,0.888672 -0.57129,2.642212 0,1.745606 0.57129,2.642212 0.57922,0.896607 1.70593,0.896607 1.11084,0 1.69007,-0.793457 0.58715,-0.801392 0.58715,-2.324829 z"
             style=""
             id="path4902" />
          <path
             d="m 237.23043,93.727753 -6.29211,0 0,0.06348 q 0,1.705933 0.6427,2.578736 0.6427,0.864868 1.89636,0.864868 0.96008,0 1.57104,-0.499878 0.6189,-0.507813 0.86487,-1.499634 l 1.17432,0 q -0.34912,1.38855 -1.29334,2.086792 -0.93628,0.698242 -2.46765,0.698242 -1.84875,0 -2.97546,-1.213989 -1.11878,-1.221924 -1.11878,-3.237305 0,-1.999511 1.10291,-3.221435 1.1029,-1.221924 2.89612,-1.221924 1.91223,0 2.93579,1.182251 1.02356,1.174316 1.06323,3.4198 z m -1.7218,-0.841065 q -0.0476,-1.47583 -0.62683,-2.221679 -0.57129,-0.753785 -1.65039,-0.753785 -1.00769,0 -1.58692,0.753785 -0.57922,0.753784 -0.70617,2.221679 l 4.57031,0 z"
             style=""
             id="path4904" />
          <path
             d="m 239.57113,96.965057 q 0,-0.444336 0.30151,-0.753784 0.30152,-0.309448 0.75379,-0.309448 0.4364,0 0.74585,0.309448 0.30944,0.309448 0.30944,0.753784 0,0.436402 -0.30944,0.74585 -0.30945,0.309448 -0.74585,0.309448 -0.45227,0 -0.75379,-0.301513 -0.30151,-0.309449 -0.30151,-0.753785 z"
             style=""
             id="path4906" />
          <path
             d="m 251.5682,95.259125 q -0.30945,1.348877 -1.19019,2.055053 -0.88073,0.706177 -2.27722,0.706177 -1.84082,0 -2.95959,-1.213989 -1.11878,-1.221924 -1.11878,-3.237305 0,-2.023315 1.11878,-3.22937 1.11877,-1.213989 2.95959,-1.213989 0.80139,0 1.59485,0.19043 0.79346,0.182495 1.59485,0.563354 l 0,2.158203 -0.849,0 q -0.16663,-1.11084 -0.72998,-1.618652 -0.55542,-0.507813 -1.59485,-0.507813 -1.18225,0 -1.78528,0.920411 -0.60302,0.912475 -0.60302,2.737426 0,1.824951 0.59509,2.745362 0.60303,0.92041 1.79321,0.92041 0.94421,0 1.50757,-0.491944 0.56335,-0.491943 0.76965,-1.483764 l 1.17432,0 z"
             style=""
             id="path4908" />
          <path
             d="m 257.20968,97.234833 q 1.17432,0 1.76941,-0.928345 0.60303,-0.928345 0.60303,-2.737427 0,-1.809082 -0.60303,-2.729492 -0.59509,-0.928345 -1.76941,-0.928345 -1.17432,0 -1.77735,0.928345 -0.59509,0.92041 -0.59509,2.729492 0,1.809082 0.60303,2.737427 0.60303,0.928345 1.76941,0.928345 z m 0,0.785522 q -1.84082,0 -2.9596,-1.213989 -1.11877,-1.221924 -1.11877,-3.237305 0,-2.015381 1.11084,-3.22937 1.11877,-1.213989 2.96753,-1.213989 1.84875,0 2.95959,1.213989 1.11878,1.213989 1.11878,3.22937 0,2.015381 -1.11878,3.237305 -1.11084,1.213989 -2.95959,1.213989 z"
             style=""
             id="path4910" />
          <path
             d="m 270.51595,90.99826 q 0.42054,-0.928344 1.07117,-1.396484 0.65857,-0.476074 1.53137,-0.476074 1.32508,0 1.97571,0.825195 0.65063,0.817261 0.65063,2.475586 l 0,4.522705 1.31714,0 0,0.841065 -4.04663,0 0,-0.841065 1.26953,0 0,-4.356079 q 0,-1.293335 -0.38086,-1.84082 -0.38085,-0.547486 -1.26159,-0.547486 -0.97595,0 -1.4917,0.737916 -0.50781,0.737915 -0.50781,2.150268 l 0,3.856201 1.26953,0 0,0.841065 -3.99903,0 0,-0.841065 1.26954,0 0,-4.411621 q 0,-1.261597 -0.38086,-1.793213 -0.38086,-0.539551 -1.2616,-0.539551 -0.97595,0 -1.4917,0.737916 -0.50781,0.737915 -0.50781,2.150268 l 0,3.856201 1.26953,0 0,0.841065 -4.04663,0 0,-0.841065 1.31714,0 0,-6.760254 -1.39649,0 0,-0.83313 2.85645,0 0,1.499634 q 0.40466,-0.841064 1.03149,-1.2854 0.62683,-0.444336 1.42029,-0.444336 0.98389,0 1.64246,0.491943 0.65857,0.484009 0.88073,1.380615 z"
             style=""
             id="path4912" />
        </g>
      </g>
    </g>
  </g>
</svg>
